<svg width="100" height="107" viewBox="0 0 200 207" fill="none" xmlns="http://www.w3.org/2000/svg">
<path d="M43.6093 73C49.506 73 53.768 71.3463 56.979 68.2161C59.8398 65.4403 61.7081 61.6013 62 57.4081H51.6662C51.1991 61.4832 48.1632 64.4362 43.5509 64.4362C37.3623 64.4362 33.509 58.8255 33.509 51.0886C33.509 43.4107 36.7201 37.6819 43.4925 37.6819C47.9296 37.6819 50.8488 40.5758 51.3742 44.3557H61.7081C61.1826 39.6309 59.0808 35.4966 55.4611 32.7208C52.4835 30.4174 48.3967 29 43.5509 29C31.1153 29 23 38.5087 23 51.0886C23 63.7275 31.3488 73 43.6093 73Z" fill="#FF5F2D"/>
<path d="M100.765 73C110.471 73 118 68.098 118 59.2389C118 50.2027 110.941 47.7812 103.118 45.9503C96.8235 44.5329 93.5882 43.8242 93.5882 40.8711C93.5882 38.5087 96 36.9141 99.6471 36.9141C103.529 36.9141 106 38.745 106.412 41.9933H116.588C116.176 33.1342 109.118 29 100 29C90.5882 29 83.2941 32.957 83.2941 41.9933C83.2941 50.8523 91 53.0966 98.2941 54.8094C104.059 56.2268 107.471 56.9356 107.471 60.302C107.471 63.4913 104.118 64.7315 100.706 64.7315C95.7059 64.7315 92.9412 62.9597 92.4706 58.7074H82C82.2353 68.0389 89.5882 73 100.765 73Z" fill="#FF5F2D"/>
<path d="M42.7647 126C52.4706 126 60 121.209 60 112.552C60 103.721 52.9412 101.354 45.1176 99.5651C38.8235 98.1799 35.5882 97.4872 35.5882 94.6013C35.5882 92.2926 38 90.7342 41.6471 90.7342C45.5294 90.7342 48 92.5235 48.4118 95.698H58.5882C58.1765 87.0403 51.1177 83 42 83C32.5882 83 25.2941 86.8671 25.2941 95.698C25.2941 104.356 33 106.549 40.2941 108.223C46.0588 109.608 49.4706 110.301 49.4706 113.591C49.4706 116.707 46.1176 117.919 42.7059 117.919C37.7059 117.919 34.9412 116.188 34.4706 112.032H24C24.2353 121.152 31.5882 126 42.7647 126Z" fill="#FF5F2D"/>
<path d="M94.2353 125H104.647V91.8112H117V83H82V91.8112H94.2353V125Z" fill="#FF5F2D"/>
<path d="M155.559 126C167.206 126 173 120.093 173 110.348V83H162.64V110.525C162.64 114.659 160.358 117.613 155.559 117.613C150.467 117.613 148.36 114.837 148.36 110.702V83H138V110.348C138 120.212 143.853 126 155.559 126Z" fill="#FF5F2D"/>
<path d="M36.5755 169.248V144.694H42.9088C49.5409 144.694 53.305 149.628 53.305 157.264C53.305 164.959 49.7201 169.248 42.7893 169.248H36.5755ZM26 178H43.566C48.9434 178 53.2453 176.649 56.5912 174.182C61.3711 170.599 64 164.666 64 157.264C64 144.4 56.0535 136 44.2233 136H26V178Z" fill="#FF5F2D"/>
<path d="M156.03 170.507C149.198 170.507 145.693 164.668 145.693 157C145.693 149.332 149.198 143.434 156.03 143.434C162.921 143.434 166.307 149.332 166.307 157C166.307 164.668 162.921 170.507 156.03 170.507ZM155.97 179C168.861 179 177 169.622 177 157C177 144.378 168.861 135 155.97 135C143.139 135 135 144.378 135 157C135 169.622 143.139 179 155.97 179Z" fill="#FF5F2D"/>
<path d="M95 178H105V136H95V178Z" fill="#FF5F2D"/>
<path d="M137 73H176" stroke="#FF5F2D" stroke-width="6"/>
</svg>
