<svg width="99" height="102" viewBox="0 0 99 102" fill="none" xmlns="http://www.w3.org/2000/svg">
<path d="M21.5866 35.9712C24.5055 35.9712 26.6152 35.1563 28.2046 33.6139C29.6207 32.2461 30.5455 30.3545 30.69 28.2882H25.5748C25.3436 30.2963 23.8408 31.7514 21.5577 31.7514C18.4943 31.7514 16.587 28.9867 16.587 25.1743C16.587 21.391 18.1764 18.5681 21.5288 18.5681C23.7252 18.5681 25.1702 19.9941 25.4303 21.8566H30.5455C30.2854 19.5284 29.245 17.4913 27.4532 16.1235C25.9794 14.9885 23.9564 14.29 21.5577 14.29C15.4021 14.29 11.385 18.9755 11.385 25.1743C11.385 31.4021 15.5177 35.9712 21.5866 35.9712Z" fill="#FF4141"/>
<path d="M49.8786 35.9712C54.683 35.9712 58.4101 33.5557 58.4101 29.1904C58.4101 24.7377 54.916 23.5445 51.0433 22.6424C47.9277 21.9439 46.3263 21.5947 46.3263 20.1396C46.3263 18.9755 47.5201 18.1897 49.3254 18.1897C51.2471 18.1897 52.4701 19.0919 52.6739 20.6925H57.7113C57.5074 16.3272 54.0133 14.29 49.5001 14.29C44.8413 14.29 41.2307 16.2399 41.2307 20.6925C41.2307 25.0579 45.0451 26.1637 48.6557 27.0077C51.5092 27.7062 53.198 28.0554 53.198 29.7142C53.198 31.2857 51.5383 31.8969 49.8495 31.8969C47.3745 31.8969 46.006 31.0238 45.773 28.9285H40.5901C40.7066 33.5266 44.3463 35.9712 49.8786 35.9712Z" fill="#FF4141"/>
<path d="M21.1684 62.0868C25.9728 62.0868 29.6999 59.7263 29.6999 55.4601C29.6999 51.1087 26.2058 49.9426 22.3331 49.0609C19.2175 48.3784 17.6161 48.0371 17.6161 46.615C17.6161 45.4774 18.8099 44.7095 20.6152 44.7095C22.5369 44.7095 23.7599 45.5912 23.9637 47.1554H29.0011C28.7972 42.8893 25.3031 40.8984 20.7899 40.8984C16.1311 40.8984 12.5205 42.804 12.5205 47.1554C12.5205 51.4215 16.3349 52.5023 19.9455 53.3271C22.799 54.0097 24.4878 54.3509 24.4878 55.9721C24.4878 57.5079 22.8281 58.1051 21.1393 58.1051C18.6643 58.1051 17.2958 57.2519 17.0628 55.2042H11.8799C11.9964 59.6978 15.6361 62.0868 21.1684 62.0868Z" fill="#FF4141"/>
<path d="M46.6466 61.5941H51.8004V45.2402H57.9151V40.8984H40.5901V45.2402H46.6466V61.5941Z" fill="#FF4141"/>
<path d="M77.0015 62.0868C82.7669 62.0868 85.6351 59.1763 85.6351 54.374V40.8984H80.5071V54.4613C80.5071 56.4987 79.3772 57.9539 77.0015 57.9539C74.481 57.9539 73.438 56.586 73.438 54.5487V40.8984H68.3101V54.374C68.3101 59.2346 71.2072 62.0868 77.0015 62.0868Z" fill="#FF4141"/>
<path d="M18.105 83.3975V71.2985H21.24C24.5229 71.2985 26.3861 73.7299 26.3861 77.4927C26.3861 81.2845 24.6116 83.3975 21.1808 83.3975H18.105ZM12.8701 87.7103H21.5653C24.2271 87.7103 26.3565 87.0446 28.0128 85.8289C30.3788 84.0632 31.6801 81.1398 31.6801 77.4927C31.6801 71.1538 27.7466 67.0146 21.8906 67.0146H12.8701V87.7103Z" fill="#FF4141"/>
<path d="M77.2347 84.018C73.853 84.018 72.118 81.1408 72.118 77.3625C72.118 73.5843 73.853 70.678 77.2347 70.678C80.6457 70.678 82.3219 73.5843 82.3219 77.3625C82.3219 81.1408 80.6457 84.018 77.2347 84.018ZM77.2053 88.2031C83.5863 88.2031 87.615 83.5821 87.615 77.3625C87.615 71.143 83.5863 66.522 77.2053 66.522C70.8536 66.522 66.825 71.143 66.825 77.3625C66.825 83.5821 70.8536 88.2031 77.2053 88.2031Z" fill="#FF4141"/>
<path d="M47.0249 87.7103H51.9749V67.0146H47.0249V87.7103Z" fill="#FF4141"/>
<path d="M67.8149 35.9712H87.1199" stroke="#FF4141" stroke-width="6"/>
</svg>
