<svg width="150" height="150" viewBox="0 0 150 150" fill="none" xmlns="http://www.w3.org/2000/svg">
<path d="M48.9796 62.7551V111.735C48.9796 112.953 48.4958 114.12 47.6347 114.982C46.7735 115.843 45.6056 116.327 44.3878 116.327C43.1699 116.327 42.002 115.843 41.1408 114.982C40.2797 114.12 39.7959 112.953 39.7959 111.735V62.7551C39.7959 61.5373 40.2797 60.3693 41.1408 59.5082C42.002 58.647 43.1699 58.1633 44.3878 58.1633C45.6056 58.1633 46.7735 58.647 47.6347 59.5082C48.4958 60.3693 48.9796 61.5373 48.9796 62.7551ZM44.3878 30.6122C42.8741 30.6122 41.3945 31.0611 40.1359 31.902C38.8774 32.7429 37.8965 33.9382 37.3173 35.3366C36.738 36.735 36.5864 38.2738 36.8817 39.7583C37.177 41.2429 37.9059 42.6065 38.9762 43.6768C40.0465 44.7471 41.4102 45.476 42.8947 45.7713C44.3793 46.0666 45.918 45.9151 47.3165 45.3358C48.7149 44.7566 49.9101 43.7757 50.751 42.5171C51.592 41.2586 52.0408 39.7789 52.0408 38.2653C52.0408 36.2356 51.2345 34.289 49.7993 32.8538C48.3641 31.4185 46.4175 30.6122 44.3878 30.6122ZM150 10.7143V139.286C150 142.127 148.871 144.853 146.862 146.862C144.853 148.871 142.127 150 139.286 150H10.7143C7.87268 150 5.14746 148.871 3.13814 146.862C1.12882 144.853 0 142.127 0 139.286V10.7143C0 7.87268 1.12882 5.14746 3.13814 3.13814C5.14746 1.12882 7.87268 0 10.7143 0H139.286C142.127 0 144.853 1.12882 146.862 3.13814C148.871 5.14746 150 7.87268 150 10.7143ZM140.816 10.7143C140.816 10.3083 140.655 9.91902 140.368 9.63198C140.081 9.34493 139.692 9.18367 139.286 9.18367H10.7143C10.3083 9.18367 9.91902 9.34493 9.63198 9.63198C9.34493 9.91902 9.18367 10.3083 9.18367 10.7143V139.286C9.18367 139.692 9.34493 140.081 9.63198 140.368C9.91902 140.655 10.3083 140.816 10.7143 140.816H139.286C139.692 140.816 140.081 140.655 140.368 140.368C140.655 140.081 140.816 139.692 140.816 139.286V10.7143ZM90.3061 58.1633C84.1364 58.1682 78.1692 60.3652 73.4694 64.3622V62.7551C73.4694 61.5373 72.9856 60.3693 72.1245 59.5082C71.2633 58.647 70.0954 58.1633 68.8776 58.1633C67.6597 58.1633 66.4918 58.647 65.6306 59.5082C64.7695 60.3693 64.2857 61.5373 64.2857 62.7551V111.735C64.2857 112.953 64.7695 114.12 65.6306 114.982C66.4918 115.843 67.6597 116.327 68.8776 116.327C70.0954 116.327 71.2633 115.843 72.1245 114.982C72.9856 114.12 73.4694 112.953 73.4694 111.735V84.1837C73.4694 79.7183 75.2433 75.4358 78.4008 72.2783C81.5583 69.1208 85.8407 67.3469 90.3061 67.3469C94.7715 67.3469 99.054 69.1208 102.211 72.2783C105.369 75.4358 107.143 79.7183 107.143 84.1837V111.735C107.143 112.953 107.627 114.12 108.488 114.982C109.349 115.843 110.517 116.327 111.735 116.327C112.953 116.327 114.12 115.843 114.982 114.982C115.843 114.12 116.327 112.953 116.327 111.735V84.1837C116.306 77.2888 113.558 70.6822 108.683 65.8068C103.808 60.9314 97.201 58.1835 90.3061 58.1633Z" fill="#FF4141"/>
</svg>
