<svg width="459" height="434" viewBox="0 0 459 434" fill="none" xmlns="http://www.w3.org/2000/svg">
<path d="M340.583 241.229L133.771 40.1875C130.788 37.2882 127.244 35.0295 123.357 33.5504C119.47 32.0712 115.321 31.4028 111.165 31.5862C107.01 31.7696 102.936 32.801 99.1942 34.6169C95.4522 36.4329 92.1212 38.995 89.4059 42.1458C83.6694 48.8077 80.6729 57.3973 81.0209 66.1818C81.3689 74.9663 85.0354 83.2919 91.2809 89.4791L195.698 192.917" stroke="#FF4141" stroke-width="41.6667" stroke-linecap="round"/>
<path d="M195.688 192.917L82.0208 80.1979C75.5232 73.7555 66.8328 70.0037 57.6881 69.6927C48.5433 69.3818 39.6182 72.5347 32.6979 78.5208C29.4347 81.3439 26.7846 84.8056 24.911 88.6925C23.0374 92.5794 21.9802 96.809 21.8045 101.12C21.6288 105.432 22.3384 109.733 23.8895 113.76C25.4406 117.786 27.8002 121.452 30.8229 124.531L145.333 241.229" stroke="#FF4141" stroke-width="41.6667" stroke-linecap="round" stroke-linejoin="round"/>
<path d="M145.323 241.229L80.1666 177.542C73.8464 171.088 65.2391 167.382 56.2073 167.226C47.1754 167.07 38.4454 170.476 31.9061 176.708C28.6899 179.774 26.1121 183.446 24.3213 187.513C22.5306 191.579 21.5623 195.96 21.4722 200.402C21.3822 204.845 22.1722 209.261 23.7967 213.397C25.4211 217.533 27.848 221.306 30.9374 224.5C127.083 323.833 176.979 370.75 195.698 386.427C226 411.812 285.739 422.333 316.937 401.5C348.135 380.667 376.333 351.021 389.719 321.594C397.687 304.062 413.156 250.031 436.156 159.5C437.285 155.057 437.515 150.432 436.832 145.899C436.15 141.366 434.569 137.014 432.182 133.1C429.795 129.186 426.65 125.788 422.932 123.105C419.214 120.423 414.998 118.51 410.531 117.479C401.344 115.355 391.69 116.874 383.599 121.716C375.507 126.558 369.606 134.347 367.135 143.448L340.583 241.229M306.375 95.9375C284.016 62.5545 252.303 36.512 215.208 21.0729M30.1041 315.833C50.687 350.339 80.9941 378.005 117.229 395.365" stroke="#FF4141" stroke-width="41.6667" stroke-linecap="round"/>
</svg>
