<svg width="115" height="115" viewBox="0 0 115 115" fill="none" xmlns="http://www.w3.org/2000/svg">
<path d="M57.4219 30.4688C52.0911 30.4688 46.8799 32.0495 42.4475 35.0112C38.0151 37.9728 34.5605 42.1823 32.5204 47.1074C30.4804 52.0324 29.9467 57.4518 30.9866 62.6802C32.0266 67.9086 34.5937 72.7112 38.3631 76.4806C42.1326 80.2501 46.9352 82.8171 52.1636 83.8571C57.392 84.8971 62.8114 84.3633 67.7364 82.3233C72.6614 80.2833 76.8709 76.8286 79.8326 72.3962C82.7942 67.9638 84.375 62.7527 84.375 57.4219C84.375 50.2735 81.5353 43.4178 76.4806 38.3631C71.4259 33.3084 64.5703 30.4688 57.4219 30.4688ZM57.4219 77.3438C53.4817 77.3438 49.63 76.1754 46.3539 73.9863C43.0777 71.7973 40.5243 68.6859 39.0165 65.0456C37.5086 61.4054 37.1141 57.3998 37.8828 53.5353C38.6515 49.6708 40.5489 46.1211 43.335 43.335C46.1211 40.5489 49.6708 38.6515 53.5353 37.8828C57.3998 37.1141 61.4054 37.5086 65.0456 39.0165C68.6859 40.5243 71.7973 43.0777 73.9863 46.3539C76.1754 49.63 77.3438 53.4817 77.3438 57.4219C77.3283 62.7007 75.2244 67.759 71.4917 71.4917C67.759 75.2244 62.7007 77.3283 57.4219 77.3438ZM83.2031 0H31.6406C23.249 0 15.2011 3.33356 9.26732 9.26732C3.33356 15.2011 0 23.249 0 31.6406V83.2031C0 91.5947 3.33356 99.6427 9.26732 105.576C15.2011 111.51 23.249 114.844 31.6406 114.844H83.2031C91.5947 114.844 99.6427 111.51 105.576 105.576C111.51 99.6427 114.844 91.5947 114.844 83.2031V31.6406C114.844 23.249 111.51 15.2011 105.576 9.26732C99.6427 3.33356 91.5947 0 83.2031 0ZM107.812 83.2031C107.812 89.7299 105.22 95.9894 100.605 100.605C95.9894 105.22 89.7299 107.812 83.2031 107.812H31.6406C25.1138 107.812 18.8543 105.22 14.2392 100.605C9.62402 95.9894 7.03125 89.7299 7.03125 83.2031V31.6406C7.03125 25.1138 9.62402 18.8543 14.2392 14.2392C18.8543 9.62402 25.1138 7.03125 31.6406 7.03125H83.2031C89.7299 7.03125 95.9894 9.62402 100.605 14.2392C105.22 18.8543 107.812 25.1138 107.812 31.6406V83.2031ZM93.75 26.9531C93.75 28.112 93.4064 29.2448 92.7625 30.2084C92.1187 31.172 91.2036 31.923 90.1329 32.3665C89.0622 32.81 87.8841 32.926 86.7475 32.6999C85.6109 32.4738 84.5669 31.9158 83.7474 31.0963C82.928 30.2769 82.3699 29.2328 82.1438 28.0962C81.9178 26.9596 82.0338 25.7815 82.4773 24.7108C82.9207 23.6402 83.6718 22.7251 84.6353 22.0812C85.5989 21.4374 86.7318 21.0938 87.8906 21.0938C89.4446 21.0938 90.935 21.7111 92.0338 22.8099C93.1327 23.9088 93.75 25.3991 93.75 26.9531Z" fill="#FF4141"/>
</svg>
