<svg width="14" height="13" viewBox="0 0 14 13" fill="none" xmlns="http://www.w3.org/2000/svg">
<path fill-rule="evenodd" clip-rule="evenodd" d="M7.17614 3.33913C5.33977 3.33913 3.85505 4.68212 3.85505 6.31709C3.85505 7.95205 5.3528 9.29504 7.17614 9.29504C8.99947 9.29504 10.4972 7.96373 10.4972 6.31709C10.4972 4.67045 8.99947 3.33913 7.17614 3.33913ZM7.17614 8.23235C6.00399 8.23235 5.04023 7.36813 5.04023 6.31709C5.04023 5.26604 6.00399 4.40183 7.17614 4.40183C8.34828 4.40183 9.31205 5.26604 9.31205 6.31709C9.31205 7.36813 8.34828 8.23235 7.17614 8.23235ZM10.6275 2.59171C10.2107 2.59171 9.87207 2.89536 9.87207 3.26907C9.87207 3.64277 10.2107 3.94636 10.6275 3.94636C11.0442 3.94636 11.3828 3.64277 11.3828 3.26907C11.3828 2.89536 11.0442 2.59171 10.6275 2.59171ZM12.5941 1.50563C11.9038 0.886682 10.9661 0.559692 9.85905 0.559692H4.49322C2.22707 0.559692 0.716309 1.92601 0.716309 3.94636V8.7345C0.716309 9.75052 1.094 10.6147 1.81031 11.2336C2.50057 11.8292 3.43829 12.1562 4.5323 12.1562H9.84602C10.953 12.1562 11.9038 11.8409 12.5941 11.2336C13.2843 10.6263 13.662 9.77383 13.662 8.75781V3.94636C13.662 2.96538 13.2973 2.12458 12.6201 1.50563H12.5941ZM12.4508 8.75781C12.4508 9.47019 12.2033 10.0658 11.7475 10.4629C11.2917 10.8599 10.6275 11.0819 9.833 11.0819H4.51927C3.75086 11.0819 3.08664 10.8716 2.63081 10.4629C2.14892 10.0541 1.90147 9.44688 1.90147 8.7345V3.94636C1.90147 3.23398 2.1359 2.65011 2.59174 2.24137C3.04757 1.83263 3.69877 1.62239 4.4802 1.62239H9.84602C10.6274 1.62239 11.2786 1.84425 11.7345 2.25299C12.1903 2.66173 12.4378 3.24566 12.4378 3.94636V8.75781H12.4508Z" fill="#2B2523"/>
</svg>
