<svg width="13" height="12" viewBox="0 0 13 12" fill="none" xmlns="http://www.w3.org/2000/svg">
<path fill-rule="evenodd" clip-rule="evenodd" d="M0.18522 11.8255H2.9593V4.35133H0.18522V11.8255ZM9.75775 4.1762C8.28605 4.1762 7.63486 4.90025 7.25717 5.4141V4.35133H4.48308C4.52216 5.05203 4.48308 11.8255 4.48308 11.8255H7.25717V7.65631C7.25717 7.43442 7.27019 7.21251 7.34834 7.04902C7.54369 6.60524 7.99952 6.13815 8.76793 6.13815C9.77077 6.13815 10.1745 6.82711 10.1745 7.83144V11.8255H12.9486V7.53949C12.9486 5.23886 11.5811 4.1762 9.75775 4.1762ZM1.59179 0.754395C0.641048 0.754395 0.0289307 1.31501 0.0289307 2.05074C0.0289307 2.78647 0.628025 3.34701 1.55272 3.34701H1.56575C2.52951 3.34701 3.1286 2.7748 3.1286 2.05074C3.11558 1.31501 2.52951 0.754395 1.57877 0.754395H1.59179Z" fill="#231F20"/>
</svg>
