<svg width="15" height="12" viewBox="0 0 15 12" fill="none" xmlns="http://www.w3.org/2000/svg">
<path fill-rule="evenodd" clip-rule="evenodd" d="M8.4655 3.12092C10.1456 2.21001 11.0442 3.49462 10.1846 4.94273C9.32507 6.39084 8.54364 7.33677 8.12688 7.33677C7.71011 7.33677 7.39754 6.3675 6.92869 4.67415C6.4468 2.9224 6.4468 -0.230766 4.41508 0.119583C2.50058 0.458254 0 3.15598 0 3.15598L0.599096 3.86834C0.599096 3.86834 1.83636 2.99247 2.2401 3.42456C2.65687 3.86834 4.21973 9.1586 4.75371 10.1279C5.20954 10.9804 6.47285 12.1132 7.8664 11.3074C9.24693 10.5016 13.8574 6.9631 14.6779 2.78227C15.4984 -1.39856 9.14274 -0.522715 8.4655 3.12092Z" fill="#231F20"/>
</svg>
